<?xml version="1.0" encoding="UTF-8" standalone="no"?>
<svg
   version="1.0"
   width="800pt"
   height="800pt"
   viewBox="0 0 800 800"
   xmlns="http://www.w3.org/2000/svg">
  <defs
     id="defs10">
    <clipPath
       clipPathUnits="userSpaceOnUse"
       id="clipPath1977">
      <rect
         style="fill:#00ffff;stroke-width:2.83465"
         id="rect1979"
         width="7999.9995"
         height="7999.9995"
         x="1539.2681"
         y="-9067.5361"
         ry="0"
         rx="0"
         transform="scale(1,-1)" />
    </clipPath>
  </defs>
  <g
     transform="matrix(0.1,0,0,-0.1,0,1024)"
     fill="#000000"
     stroke="none"
     id="g4">
    <rect
       style="fill:#00ffff;stroke:#03ddff;stroke-width:2.83465;stroke-opacity:1"
       id="rect1872"
       width="6497.1655"
       height="6497.1655"
       x="751.41724"
       y="-9488.583"
       transform="scale(1,-1)"
       ry="454.68192"
       rx="0" />
    <path
       d="M 0,5120 V 0 h 5120 5120 v 5120 5120 H 5120 0 Z m 6945,2739 c 122,-15 237,-50 348,-105 125,-63 197,-116 293,-216 127,-132 189,-235 244,-401 l 22,-68 68,-34 c 66,-33 186,-72 418,-135 141,-38 216,-75 271,-135 127,-138 128,-331 2,-467 -22,-25 -62,-56 -89,-71 -97,-53 -139,-57 -600,-57 -404,0 -425,1 -462,20 -64,33 -87,99 -55,160 30,57 32,58 515,65 260,5 453,12 465,18 64,31 89,91 61,146 -22,42 -51,55 -228,102 -438,116 -578,186 -608,301 -37,140 -66,213 -111,281 -226,345 -714,460 -1112,262 -236,-117 -411,-325 -479,-570 -22,-78 -22,-98 -28,-685 l -5,-605 -23,-37 c -52,-84 -173,-73 -214,19 -19,42 -19,67 -15,616 4,623 4,621 66,806 102,304 319,549 602,680 105,48 221,85 319,101 41,6 82,13 90,15 37,7 163,4 245,-6 z m 76,-650 c 123,-41 144,-203 36,-269 -61,-37 -149,-21 -192,36 -61,79 -23,206 71,234 40,12 46,12 85,-1 z m -14,-1064 c 35,-23 51,-65 58,-151 8,-101 36,-158 161,-334 275,-387 376,-587 436,-866 21,-98 23,-134 23,-354 -1,-281 -14,-376 -87,-600 -129,-398 -390,-763 -753,-1052 -301,-240 -783,-440 -1215,-504 -141,-21 -509,-24 -650,-6 -418,56 -855,224 -1180,456 -185,132 -391,327 -530,501 -135,171 -260,390 -275,482 -12,75 37,134 113,135 61,1 87,-24 148,-141 117,-221 244,-392 411,-551 428,-411 1017,-652 1598,-654 271,0 489,33 733,113 170,56 272,100 432,189 316,176 519,362 720,663 138,206 230,431 271,665 26,153 29,424 4,559 -46,260 -152,484 -359,765 -203,273 -235,340 -243,505 -4,83 -1,106 14,135 33,64 110,84 170,45 z M 2608,5806 c 31,-16 65,-71 81,-132 27,-102 162,-234 316,-310 112,-55 186,-74 290,-74 116,-1 162,-12 199,-49 62,-63 30,-162 -63,-192 -49,-16 -238,-5 -331,20 -152,41 -306,121 -428,224 -24,21 -46,37 -49,37 -13,0 7,-221 26,-295 68,-258 279,-513 528,-639 28,-14 87,-38 130,-53 l 78,-28 690,-5 c 524,-4 695,-8 712,-17 61,-36 80,-109 43,-170 -40,-67 -8,-64 -758,-61 l -677,4 -98,26 c -228,62 -380,151 -552,323 -199,198 -296,372 -352,627 -28,130 -25,400 5,538 41,180 78,240 149,240 19,0 46,-6 61,-14 z m 2982,-542 c 226,-39 475,-164 642,-322 149,-141 277,-378 308,-575 16,-95 8,-333 -14,-430 -53,-237 -227,-491 -454,-662 -359,-270 -954,-359 -1467,-220 -302,82 -580,238 -789,443 -84,82 -115,135 -116,194 0,68 74,127 144,114 27,-5 53,-28 123,-103 341,-373 928,-548 1469,-438 500,102 850,456 871,880 21,423 -262,764 -722,868 -85,19 -133,21 -857,26 l -768,6 -32,33 c -28,28 -33,39 -33,82 0,42 5,54 31,81 17,17 47,35 65,40 19,5 363,6 774,3 588,-4 757,-9 825,-20 z"
       id="path2"
       clip-path="url(#clipPath1977)"
       transform="translate(-1539.2678,1172.4636)" />
    <rect
       style="display:none;fill:#ffffff;stroke:#000000;stroke-width:2.83465;stroke-opacity:1"
       id="rect465"
       width="1215"
       height="1140"
       x="4931.7681"
       y="-5637.5366"
       transform="scale(1,-1)"
       ry="570"
       rx="0" />
  </g>
</svg>
